<svg width="156" height="156" viewBox="0 0 156 156" fill="none" xmlns="http://www.w3.org/2000/svg">
<path d="M84.6803 6.67865C84.6803 2.99013 81.6902 0 78.0016 0C74.3131 0 71.323 2.99013 71.323 6.67865V31.7167C71.323 35.4052 74.3131 38.3954 78.0016 38.3954C81.6902 38.3954 84.6803 35.4052 84.6803 31.7167V6.67865Z" fill="white"/>
<path opacity="0.91" d="M48.1311 12.8847C46.2868 9.69036 42.2022 8.5959 39.0079 10.4402C35.8135 12.2844 34.7191 16.369 36.5633 19.5634L49.0824 41.247C50.9266 44.4413 55.0112 45.5358 58.2055 43.6915C61.3999 41.8472 62.4944 37.7627 60.6501 34.5683L48.1311 12.8847Z" fill="white"/>
<path opacity="0.82" d="M19.5704 36.5683C16.3761 34.724 12.2915 35.8185 10.4472 39.0128C8.60298 42.2072 9.69744 46.2918 12.8918 48.136L34.5754 60.655C37.7697 62.4993 41.8543 61.4048 43.6986 58.2105C45.5428 55.0161 44.4484 50.9315 41.254 49.0873L19.5704 36.5683Z" fill="white"/>
<path opacity="0.73" d="M6.67865 71.3214C2.99013 71.3214 0 74.3115 0 78C0 81.6885 2.99013 84.6786 6.67865 84.6786H31.7167C35.4052 84.6786 38.3954 81.6885 38.3954 78C38.3954 74.3115 35.4052 71.3214 31.7167 71.3214H6.67865Z" fill="white"/>
<path opacity="0.64" d="M12.9032 107.883C9.70886 109.727 8.61439 113.812 10.4586 117.006C12.3029 120.2 16.3875 121.295 19.5819 119.451L41.2654 106.932C44.4598 105.087 45.5543 101.003 43.71 97.8083C41.8657 94.614 37.7811 93.5195 34.5868 95.3638L12.9032 107.883Z" fill="white"/>
<path opacity="0.55" d="M36.5476 136.423C34.7033 139.617 35.7978 143.702 38.9921 145.546C42.1865 147.39 46.2711 146.296 48.1153 143.102L60.6344 121.418C62.4786 118.224 61.3841 114.139 58.1898 112.295C54.9955 110.451 50.9109 111.545 49.0666 114.739L36.5476 136.423Z" fill="white"/>
<path opacity="0.45" d="M71.3197 149.321C71.3197 153.01 74.3098 156 77.9984 156C81.6869 156 84.677 153.01 84.677 149.321V124.283C84.677 120.595 81.6869 117.605 77.9984 117.605C74.3098 117.605 71.3197 120.595 71.3197 124.283V149.321Z" fill="white"/>
<path opacity="0.36" d="M107.873 143.109C109.718 146.303 113.802 147.398 116.996 145.553C120.191 143.709 121.285 139.624 119.441 136.43L106.922 114.747C105.078 111.552 100.993 110.458 97.7988 112.302C94.6044 114.146 93.51 118.231 95.3542 121.425L107.873 143.109Z" fill="white"/>
<path opacity="0.27" d="M136.421 119.438C139.615 121.283 143.7 120.188 145.544 116.994C147.388 113.799 146.294 109.715 143.099 107.871L121.416 95.3515C118.222 93.5072 114.137 94.6017 112.293 97.796C110.448 100.99 111.543 105.075 114.737 106.919L136.421 119.438Z" fill="white"/>
<path opacity="0.18" d="M149.321 84.6786C153.01 84.6786 156 81.6885 156 78C156 74.3115 153.01 71.3214 149.321 71.3214H124.283C120.595 71.3214 117.605 74.3115 117.605 78C117.605 81.6885 120.595 84.6786 124.283 84.6786H149.321Z" fill="white"/>
<path opacity="0.09" d="M143.105 48.124C146.3 46.2797 147.394 42.1951 145.55 39.0008C143.706 35.8065 139.621 34.712 136.427 36.5562L114.743 49.0753C111.549 50.9195 110.454 55.0041 112.299 58.1985C114.143 61.3928 118.228 62.4873 121.422 60.643L143.105 48.124Z" fill="white"/>
</svg>
