<svg width="21" height="21" viewBox="0 0 21 21" fill="none" xmlns="http://www.w3.org/2000/svg">
<path fill-rule="evenodd" clip-rule="evenodd" d="M10.5 21C16.299 21 21 16.299 21 10.5C21 4.70101 16.299 0 10.5 0C4.70101 0 0 4.70101 0 10.5C0 16.299 4.70101 21 10.5 21ZM14.0438 6.6496C14.91 5.78347 16.3142 5.78347 17.1804 6.6496C18.0465 7.51573 18.0465 8.92 17.1804 9.78613L11.3104 15.6561C11.2639 15.7128 11.2142 15.7678 11.1612 15.8208C10.2944 16.6876 8.88906 16.6876 8.02226 15.8208L4.6501 12.4486C3.7833 11.5818 3.7833 10.1764 4.6501 9.30964C5.5169 8.44284 6.92226 8.44284 7.78906 9.30964L9.58642 11.107L14.0438 6.6496Z" fill="white"/>
</svg>
