<svg width="21" height="21" viewBox="0 0 21 21" fill="none" xmlns="http://www.w3.org/2000/svg">
<path fill-rule="evenodd" clip-rule="evenodd" d="M10.0545 18.6134L10.8301 19.9567C11.0078 20.2614 11.2548 20.4992 11.5433 20.6607H1.47494C0.660147 20.6607 0 20.0006 0 19.1858V1.47494C0 0.660147 0.660147 0 1.47494 0H14.881C15.6958 0 16.3559 0.660147 16.3559 1.47494V10.1769H14.941C14.2096 10.1769 13.5732 10.5928 13.256 11.2007C13.2338 10.9957 13.0609 10.837 12.8498 10.837H3.50161C3.2754 10.837 3.09306 11.0193 3.09306 11.2455V11.811C3.09306 12.0372 3.2754 12.2196 3.50161 12.2196H11.0676C10.9819 12.316 10.9054 12.4218 10.8393 12.5359L10.0638 13.8792C9.80987 14.3201 9.74293 14.8325 9.8745 15.3219C9.97145 15.6819 10.1653 16.0005 10.4377 16.2428C10.1607 16.4875 9.96221 16.806 9.86527 17.1707C9.7337 17.6624 9.80064 18.1748 10.0545 18.6134ZM3.50162 4.57963H12.8499C13.0761 4.57963 13.2584 4.39728 13.2584 4.17108V3.60557C13.2584 3.37936 13.0761 3.19701 12.8499 3.19701H3.50162C3.27542 3.19701 3.09307 3.37936 3.09307 3.60557V4.17108C3.09307 4.39728 3.27542 4.57963 3.50162 4.57963ZM12.8498 8.39948H3.50161C3.2754 8.39948 3.09306 8.21713 3.09306 7.99093V7.42542C3.09306 7.19921 3.2754 7.01687 3.50161 7.01687H12.8498C13.076 7.01687 13.2584 7.19921 13.2584 7.42542V7.99093C13.2584 8.21713 13.076 8.39948 12.8498 8.39948Z" fill="white"/>
<path fill-rule="evenodd" clip-rule="evenodd" d="M16.4183 21H14.8672C14.4563 21 14.1216 20.6653 14.1216 20.2545V19.7861C13.8299 19.6637 13.5561 19.5072 13.3051 19.3216L12.776 19.627C12.4205 19.8324 11.9635 19.7101 11.7581 19.3546L10.9825 18.0112C10.7771 17.6558 10.8994 17.1988 11.2549 16.9933L11.746 16.7098C11.7205 16.5287 11.7073 16.3436 11.7073 16.1554C11.7073 16.0097 11.7152 15.8658 11.7306 15.7242L11.2617 15.4536C10.9063 15.2482 10.7839 14.7911 10.9894 14.4357L11.7649 13.0923C11.9703 12.7368 12.4274 12.6145 12.7828 12.8199L13.2065 13.0644C13.4838 12.8456 13.7912 12.6632 14.1216 12.5246V12.0534C14.1216 11.6426 14.4563 11.3079 14.8672 11.3079H16.4183C16.8291 11.3079 17.1638 11.6426 17.1638 12.0534V12.5246C17.4913 12.662 17.7964 12.8423 18.0718 13.0587L18.3572 12.8939C18.715 12.6885 19.1697 12.8109 19.3751 13.1663L20.1507 14.5097C20.3561 14.8652 20.2338 15.3222 19.8783 15.5276L19.5539 15.7149C19.57 15.8595 19.5783 16.0065 19.5783 16.1554C19.5783 16.3467 19.5646 16.5349 19.5382 16.719L19.8852 16.9193C20.243 17.1247 20.3653 17.5818 20.1575 17.9372L19.382 19.2806C19.1766 19.6361 18.7195 19.7584 18.3641 19.553L17.9729 19.3272C17.7239 19.5104 17.4526 19.665 17.1638 19.7861V20.2545C17.1638 20.6676 16.8291 21 16.4183 21ZM17.801 16.1552C17.801 17.3471 16.8347 18.3134 15.6428 18.3134C14.4509 18.3134 13.4846 17.3471 13.4846 16.1552C13.4846 14.9633 14.4509 13.997 15.6428 13.997C16.8347 13.997 17.801 14.9633 17.801 16.1552Z" fill="white"/>
</svg>
