<svg width="22" height="21" viewBox="0 0 22 21" fill="none" xmlns="http://www.w3.org/2000/svg">
<path d="M10.6694 0C7.03479 0 4.0896 2.94519 4.0896 6.57981C4.0896 10.2144 7.03479 13.1596 10.6694 13.1596C14.304 13.1596 17.2492 10.2144 17.2492 6.57981C17.2492 2.94519 14.304 0 10.6694 0ZM10.6694 6.04615C12.1665 6.04615 13.3867 7.10192 13.3867 8.4C13.3867 9.53942 12.4463 10.4942 11.2031 10.7077V11.3769C11.2031 11.6712 10.9636 11.9077 10.6723 11.9077C10.3809 11.9077 10.1415 11.6683 10.1415 11.3769V10.7077C8.89825 10.4913 7.95787 9.53942 7.95787 8.4C7.95787 8.10577 8.19729 7.86923 8.48864 7.86923C8.77998 7.86923 9.01941 8.10865 9.01941 8.4C9.01941 9.10962 9.76075 9.68942 10.6723 9.68942C11.5838 9.68942 12.3252 9.10962 12.3252 8.4C12.3252 7.69038 11.5838 7.11058 10.6723 7.11058C9.17518 7.11058 7.95498 6.05481 7.95498 4.75673C7.95498 3.61731 8.89537 2.6625 10.1386 2.44904V1.77981C10.1386 1.48558 10.3781 1.24904 10.6694 1.24904C10.9608 1.24904 11.2002 1.48846 11.2002 1.77981V2.44904C12.4434 2.66538 13.3838 3.61731 13.3838 4.75673C13.3838 5.05096 13.1444 5.2875 12.8531 5.2875C12.5617 5.2875 12.3223 5.04808 12.3223 4.75673C12.3223 4.04712 11.5809 3.46731 10.6694 3.46731C9.75787 3.46731 9.01652 4.04712 9.01652 4.75673C9.01652 5.46635 9.75787 6.04615 10.6694 6.04615Z" fill="white"/>
<path d="M3.92596 19.65V13.125V12.8366V12.6087C3.92596 12.2568 3.68365 11.9712 3.38654 11.9712H0.539423C0.242308 11.9712 0 12.2568 0 12.6087V20.1837C0 20.5356 0.242308 20.8212 0.539423 20.8212H3.38654C3.68365 20.8212 3.92596 20.5356 3.92596 20.1837V19.65Z" fill="white"/>
<path d="M19.0499 13.5261C18.7354 13.6126 18.3806 13.728 17.9797 13.8809C17.5758 14.0338 17.1576 14.1953 16.7364 14.3597C15.2537 14.9338 14.622 15.2078 13.6585 15.5914C13.4364 16.0011 13.0095 16.2838 12.5104 16.2838H9.32005C8.91621 16.2838 8.58736 16.6126 8.58736 17.0164H8.01044C8.01044 16.2953 8.5989 15.7068 9.32005 15.7068H12.5104C12.9143 15.7068 13.2431 15.378 13.2431 14.9741C13.2431 14.5703 12.9143 14.2414 12.5104 14.2414H9.32005C8.6739 14.2414 8.12294 13.9761 7.58928 13.7222C7.10467 13.4914 6.6489 13.2722 6.1614 13.2722H4.56909V19.653H5.10851C5.51236 19.653 9.04025 21.0001 9.92005 21.0001C10.4076 21.0001 12.9951 19.2232 16.1797 17.253C18.7845 15.6434 20.8672 14.3482 21.0691 14.2039C21.6114 13.8116 21.4989 12.8597 19.0441 13.5318L19.0499 13.5261Z" fill="white"/>
</svg>
