<svg width="21" height="21" viewBox="0 0 21 21" fill="none" xmlns="http://www.w3.org/2000/svg">
<path fill-rule="evenodd" clip-rule="evenodd" d="M21 10.5C21 16.299 16.299 21 10.5 21C4.70101 21 0 16.299 0 10.5C0 4.70101 4.70101 0 10.5 0C16.299 0 21 4.70101 21 10.5ZM13.3498 5.04927C14.1138 4.28523 15.3525 4.28523 16.1166 5.04927C16.8806 5.8133 16.8806 7.05205 16.1166 7.81608L13.3498 10.5829L16.1166 13.3497C16.8806 14.1137 16.8806 15.3525 16.1166 16.1165C15.3526 16.8805 14.1138 16.8805 13.3498 16.1165L10.583 13.3497L7.81615 16.1165C7.05211 16.8805 5.81337 16.8805 5.04934 16.1165C4.2853 15.3525 4.2853 14.1137 5.04934 13.3497L7.81617 10.5829L5.04937 7.81608C4.28534 7.05204 4.28534 5.8133 5.04937 5.04927C5.81341 4.28523 7.05215 4.28523 7.81618 5.04927L10.583 7.81606L13.3498 5.04927Z" fill="white"/>
</svg>
