<svg width="13" height="8" viewBox="0 0 13 8" fill="none" xmlns="http://www.w3.org/2000/svg">
<path d="M0 3.36021C1.538 1.72789 3.3115 0.469372 5.606 0.0789825C7.0125 -0.160619 8.3345 0.163404 9.591 0.779244C10.8085 1.37605 11.8685 2.17977 12.809 3.13817C12.8775 3.20795 12.937 3.28603 13.0005 3.36021C13.0005 3.4578 13.0005 3.5554 13.0005 3.653C11.514 5.23847 9.7925 6.46136 7.592 6.90299C6.111 7.20017 4.715 6.87859 3.3875 6.22322C2.1785 5.6269 1.127 4.82514 0.1905 3.87552C0.122 3.80623 0.0635 3.72766 0 3.653C0 3.5554 0 3.4578 0 3.36021ZM8.2575 1.34726C8.9935 1.89917 9.4615 2.58919 9.458 3.51831C9.4545 4.43719 8.9815 5.1194 8.2565 5.66887C9.586 5.217 10.6955 4.45134 11.7205 3.50611C10.6935 2.56088 9.5845 1.79426 8.2575 1.34726ZM4.748 5.66741C4.005 5.12086 3.542 4.42743 3.542 3.50123C3.542 2.57894 4.014 1.89234 4.808 1.32969C3.8595 1.53611 1.71 2.90345 1.307 3.53637C2.316 4.45378 3.42 5.22627 4.748 5.66741Z" fill="white"/>
</svg>
